<svg
   width="132.30453mm"
   height="70.632133mm"
   viewBox="0 0 132.30453 70.632133"
   version="1.1"
   id="svg1"
   xml:space="preserve"
   xmlns="http://www.w3.org/2000/svg"
   xmlns:svg="http://www.w3.org/2000/svg"><defs
     id="defs1" /><g
     id="layer1"
     transform="translate(-36.94913,-108.32386)"><path
       style="fill:#2cbfdd"
       d="m 101.06841,178.45341 c -0.69616,-0.31607 -1.383503,-0.92027 -1.852083,-1.62806 l -0.74511,-1.12547 -0.13229,-12.48519 -0.132289,-12.48518 -27.252088,13.51523 c -25.53688,12.66461 -27.35199,13.52114 -28.83958,13.60919 -1.39351,0.0825 -1.73533,-0.001 -2.79719,-0.68341 -0.72476,-0.46574 -1.41418,-1.18941 -1.71979,-1.80524 -0.49376,-0.99494 -0.51233,-2.02078 -0.57946,-32.0139 l -0.0694,-30.98604 0.73453,-1.40606 c 0.90439,-1.7312 2.39223,-2.63542 4.33642,-2.63542 1.15854,0 4.05389,1.3881 31.17922,14.94804 l 29.90209,14.94805 29.90209,-14.94805 c 27.12533,-13.55994 30.02068,-14.94804 31.17922,-14.94804 1.9442,0 3.43203,0.90422 4.33642,2.63542 l 0.73454,1.40606 -0.0694,30.98604 c -0.0671,29.99312 -0.0857,31.01896 -0.57946,32.0139 -0.30562,0.61583 -0.99504,1.3395 -1.7198,1.80524 -1.06186,0.68237 -1.40368,0.76589 -2.79719,0.68341 -1.48758,-0.0881 -3.30269,-0.94458 -28.83958,-13.60919 l -27.25209,-13.51523 -0.13229,12.48518 -0.13229,12.48519 -0.7451,1.12547 c -0.83729,1.26471 -2.41626,2.13064 -3.88511,2.13064 -0.50932,0 -1.42418,-0.22616 -2.03302,-0.50258 z M 69.078,153.9791 c 11.582364,-5.74004 21.058846,-10.56047 21.058846,-10.71207 0,-0.39198 -42.316076,-21.51265 -42.760076,-21.34228 -0.30869,0.11846 -0.36701,3.47747 -0.36701,21.13942 0,11.54922 0.0794,21.07796 0.17639,21.17497 0.097,0.097 0.32413,0.17639 0.50469,0.17639 0.18057,0 9.80479,-4.69639 21.38716,-10.43643 z m 90.05054,-10.80408 c 0.0573,-17.84417 0.0107,-21.13009 -0.30087,-21.24966 -0.44511,-0.17081 -42.76165,20.94881 -42.76165,21.34177 0,0.38528 41.8158,21.13024 42.46562,21.06733 0.5237,-0.0507 0.52987,-0.26952 0.5969,-21.15944 z"
       id="path1" /></g></svg>
