<?xml version="1.0" encoding="UTF-8" standalone="no"?>

<svg
   width="132.29167mm"
   height="132.28969mm"
   viewBox="0 0 132.29167 132.28969"
   version="1.1"
   id="svg1"
   xml:space="preserve"
   xmlns="http://www.w3.org/2000/svg"
   xmlns:svg="http://www.w3.org/2000/svg"><defs
     id="defs1" /><g
     id="layer1"
     transform="translate(-38.652737,-82.354164)"><path
       style="fill:#8c00fc"
       d="m 40.319227,214.12738 -0.84705,-0.51648 -0.40972,-0.79231 -0.40972,-0.79231 V 148.47822 84.930166 l 0.55471,-0.897541 0.55471,-0.89754 0.75507,-0.390461 0.75507,-0.39046 63.579283,9.89e-4 63.57929,9.89e-4 0.84705,0.516477 0.84705,0.516477 0.40972,0.792312 0.40972,0.792311 V 148.5 212.02628 l -0.40972,0.79231 -0.40972,0.79231 -0.84705,0.51648 -0.84705,0.51648 H 104.79857 41.166277 Z M 163.80066,148.5 V 89.497914 H 104.79857 45.796487 V 148.5 207.50209 h 59.002083 59.00209 z m -60.8489,42.66365 -0.92076,-0.46261 -0.60059,-0.89902 -0.60059,-0.89902 v -23.50879 -23.50879 h -0.15977 -0.15977 l -22.660543,11.22417 -22.66054,11.22418 -0.760482,0.1225 -0.760482,0.1225 -0.95931,-0.25954 -0.95931,-0.25953 -0.620451,-0.56996 -0.620452,-0.56995 -0.437882,-0.79375 -0.437882,-0.79375 0.08938,-26.05339 0.08938,-26.05338 0.369646,-0.71482 0.369646,-0.71482 0.831546,-0.59211 0.831546,-0.59211 1.296122,-0.12454 1.296123,-0.12454 24.996116,12.5359 24.996119,12.53589 24.93698,-12.50362 24.93698,-12.50362 1.06246,0.002 1.06247,0.002 0.92191,0.4899 0.92191,0.48991 0.59532,0.87214 0.59531,0.87214 v 26.16776 26.16776 l -0.37174,0.71447 -0.37173,0.71446 -0.62046,0.56995 -0.62045,0.56996 -0.95931,0.25953 -0.95931,0.25954 -0.76048,-0.1225 -0.76048,-0.1225 -22.66054,-11.22418 -22.66054,-11.22417 h -0.15977 -0.15978 v 23.1998 23.19979 l -0.52919,1.09317 -0.52919,1.09316 -1.02819,0.57787 -1.02818,0.57787 -0.89002,-4.1e-4 -0.89002,-4.1e-4 z m -26.612773,-46.61219 17.611669,-8.71104 v -0.22188 -0.22188 l -17.528646,-8.80555 -17.528647,-8.80555 -0.46302,0.0114 -0.463021,0.0114 v 17.5507 17.55069 l 0.176389,0.17639 0.176389,0.17639 h 0.203609 0.203609 z m 75.226563,-9.08579 0.068,-17.65734 -0.46489,-0.0114 -0.4649,-0.0114 -17.52864,8.80555 -17.52865,8.80555 v 0.22197 0.22196 l 17.52865,8.69585 17.52864,8.69585 0.39688,-0.0547 0.39687,-0.0546 z"
       id="path1" /></g></svg>
